<?xml version="1.0" encoding="utf-8"?>
<!-- Generator: Adobe Illustrator 19.2.1, SVG Export Plug-In . SVG Version: 6.00 Build 0)  -->
<svg version="1.1" xmlns="http://www.w3.org/2000/svg" xmlns:xlink="http://www.w3.org/1999/xlink" x="0px" y="0px"
	 viewBox="0 0 590.1 612" style="enable-background:new 0 0 590.1 612;" xml:space="preserve">
<style type="text/css">
	.st0{fill:#DADDE3;stroke:#FFFFFF;stroke-width:0.5;}
	.st1{fill:none;stroke:#2E3191;stroke-width:3;stroke-miterlimit:10;}
	.st2{fill:none;stroke:#000000;stroke-miterlimit:10;}
	.st3{fill:none;stroke:#D8C925;stroke-width:3;stroke-miterlimit:10;}
</style>
<g id="Layer_1">
	<g>
		<path id="BO-Beni" class="st0" d="M171,273l-11.7-11.8l-1.4-0.5l-0.6-0.7l-0.5-1.1l-0.3-4.7l-5.9-10l-0.8-0.8l-3,0l-2.3-1.6
			l-0.8-2.1l-0.1-1.6l0.8-4l-0.3-2l-4-4l-1.2-3.7l0.1-5l-0.8-6.5l1.6-4.4l-0.7-8.5l1.7-10l1.2-3.1l1.3-0.6l3.8-5.2l-0.1-1l-1.2-0.7
			l-0.9-5l0.4-1.3l2.6-3.9l1.8-1l5.6-7l4.2-3.4l3.9-12.6l1-4.5l-0.7-3.2l0.4-6.8l0.5-0.7l0,0l0.7-0.6l0.6-1.2l-0.6-2.6l0.6-3.9
			l1.3-4.1l0.1-1.4l-1.3-3.9l-1.4-2.5l0.7-6.7l0.5-0.9l5.7-1.8l2.1-1.8l-0.4-2.7l1-4.4l0.9-1.3l2.9-0.6l6.4,0.1l5.8-3.2l1-0.8
			l1.1-1.9l-0.1-1.1l4.7-6.8l3.5-6l1.3-4.2l-0.7-0.6l-1.5-0.1l3.2-2.5l1.2-0.1l2.5,0.6l7.1-5l4.5-5.2l5.4-3.3l2.2-3l0.8-0.7l2.6-0.4
			l0,0l0.2,0.9l-0.5,1.2l-1.7,1.3l0.2,6.2l2,5.8l3.1,5.3l0.6,4.5l-4.2,7.8l0.5,4.5l1.8,5.5l1.6,3.8l0.9,0.5l2,0l0.8,0.6l2.3,4.1
			l-1.7,4.1l0.7,1.7l1.8,0.9l1.3-3.1l2.4,2.4l0.8,2.3l1.1,6.8l0.4,0.8l1,0.9l7.4,0.8l0.8,0.6l2.2,4.6l5.1,2.6l4.3,1.3l0.8,5.3
			l3.2,3.2l2,1.2l3.4,0.6l2.3-0.1l2.6,0.3l5.8,1.4l0.8,0.8l3.9,0.4l1.2-0.8l1.2-1.5l3.1-1.4l5.3,0.5l8.4,4.3l0.3,1.1l2.1,2.5
			l3.8,2.2l3.3,0.1l1.3-1.1l3.5-1.9l2.8,1l0.8,3.8l2.3,3.9l4.1,2.6l5.3,4.5l3.4-1.6l1.8,1.7l0,1.1l11,4.9l4.9-0.2l1-0.6l1.3-0.2
			l4.2,1.4l1.2,5l3.5,3.9l1.2,0.6l4.2,3.4l0.2,1.2l1.2,2.5l1.3,0.4l9.1-1.8l0,0l-83.8,48.3l-16.1,4.5l0.5,1.2l0.9,4l-0.9,9.6
			l0.9,3.4l2.8,6.2l8,12.3l2.2,2.2l5.8,3.1l1.8,2.8l2.9,5.8l-1.2,0.7l-46.3-1.9l-4.3-0.3l-3.4-0.8l0,0l-4.2,0.8l-17,2l-3.7,7.5
			l0.4,1.6l-2.1,6.4l-0.7,1.7l-0.8,0.8l-3.7,1.9l-6.4,2l-8.8,2.4l-3,0.1l-5.1-1l-4.1-1.5l-6.2-4.1l-8.3-9.1l-1.2-1.7l-1.4-3.9
			l-1.9-2.4L171,273z"/>
		<path id="BO-Cocha" class="st0" d="M177.7,373.1l-3.3-7.5l-4.2-5.6l-2.3-2.2l-5.5-3.9l0,0l6.6-3.5l-2.6-13l-5.6-8.4l3.3-6.5
			l1.9-0.4l3.2-0.1l1.6-0.6l0.7-0.7l0.9-1.6l0.9-6l0.1-1.8l-1.3-2.5l-0.9-5.5l-0.3-4.3l-3.9-7.5l-1.4-1.5l-0.2-11.4l0.5-1.2l1.7-2
			l3.4-2.6l0,0l10.1,9.8l1.9,2.4l1.4,3.9l1.2,1.7l8.3,9.1l6.2,4.1l4.1,1.5l5.1,1l3-0.1l8.8-2.4l6.4-2l3.7-1.9l0.8-0.8l0.7-1.7
			l2.1-6.4l-0.4-1.6l3.7-7.5l17-2l4.2-0.8l0,0l-1,2.9l0.3,3.7l0.9,2.5l0.8,4.5l0.9,9.2l-2.5,7.2l-2,3.4l-1.6,4l0.2,3.7l0.5,1.6
			l3,6.1l13,8.5l2.1,1.7l4.8,5.8l0.4,0.9l-0.2,3.1l-5.1,0l-2.5,1.9l0,2.1l-0.6,1.2l-6.8,9.8l-2.8,2.9l-2.5,2l-0.3,1l0.1,1.5l3,3.4
			l6.5,10.6l2.3,7.3l0.6,0.6l1.3,0.5l3.3,2.6l0.5,4.2l-2.1,3.1l0,0l-1.4-2.4l-1.7,0.1l-1.6,1.7l-2.7,0.9l-1.5,0l-3.1-1.7l-2.7-4.3
			l-4.9-1.8l-2.8-0.1l-2.2,1l-4.1,3l-1.5,1.7l0.4,1.2l-0.1,1.1l-5.5-2.6l-2.6-1.6l-0.5-2.1l-3.9-4.9l0,0l-5.5-4.3l-3.7-4l-3.3-4.3
			l-2.7-2.6l-4.2-3.1l-2.9-1.4l-2.3,0.5l-2.5-2.8l-1.2-2.3l-0.8-0.5l-2.5-0.3l-3.6,0.8l-6.6,5.1l-1.4,0.2l-3.4-0.4L177.7,373.1z"/>
		<path id="BO-Sucre" class="st0" d="M236.1,530.6l-4-3.3l-5-5l-1.1-2.3l-0.1-1.5l0.3-8.2l1.3-3.9l0.5-6.6l2.1-6.2l2.7-5.5l0.6-2.4
			l-3-11.9l-0.1-2.6l2.1-7.4l3.9-2.3l3.8-0.7l2.7-0.1l1.6-0.4l5.9-3.3l4.6-4.5l2.2-3.2l-2.8-4.2l-1.2-4l0.2-1.9l-1.5-3.6l-2.4-2.1
			l-3.2-0.3l-1.1,0.3l-1.2,0.8l-4.1-0.2l-6.5-3l-3.3-2.3l-0.4-1.4l-5.4-6.5l-0.9-2.8l1.7-3.5l-0.4-5.4l3.3-3.2l0.3-0.9l-0.1-0.9
			l-0.8-0.7l-6.9-1.2l-1-5.7l-1.7-4.1l0.3-3.4l8.9,2.2l3.5,1.1l1-0.4l0,0l3.9,4.9l0.5,2.1l2.6,1.6l5.5,2.6l0.1-1.1l-0.4-1.2l1.5-1.7
			l4.1-3l2.2-1l2.8,0.1l4.9,1.8l2.7,4.3l3.1,1.7l1.5,0l2.7-0.9l1.6-1.7l1.7-0.1l1.4,2.4l0,0l1.1,0.7l0.1,2.9l1.4,3.6l9.8,11.1
			l1.8,3.9l1.9,0.4l0.9-0.2l0.8-0.7l0.6-1.1l0.2-3.2l0.6-0.8l6.1,0.1l-1.2,9.3l1.6,21.5l0.1,9.2l1.3,3.5l0.4,3.2l0,3.5l0.7,11.7
			l0.7,0.6l6.4,0.5l3.7-2.5l5.4,3.1l45.9-0.2l0,0l-3,4.1l0.4,19.6l0,0l-32.3,0.1l-39.8-0.3l-2.8-2l-1.1-1.6l-4.4-1.2l-0.4,1.1
			l0.1,4.8l-0.7,3.9l-0.6,1l-0.8,0.5l-5.5-0.4l-5.5-2.2l-3.3-2.9l-3.1-3.5l-2.8-0.5l-1.6,2.5l-0.3,2.2l-0.9,2.2l-2.2,0.5l-1.6-0.8
			l-1.8-1.9l-7-3.6l-3.5-0.4l-0.6,1.3L236.1,530.6z"/>
		<path id="BO-Lapaz" class="st0" d="M171,273l-3.4,2.6l-1.7,2l-0.5,1.2l0.2,11.4l1.4,1.5l3.9,7.5l0.3,4.3l0.9,5.5l1.3,2.5l-0.1,1.8
			l-0.9,6l-0.9,1.6l-0.7,0.7l-1.6,0.6l-3.2,0.1l-1.9,0.4l-3.3,6.5l5.6,8.4l2.6,13l-6.6,3.5l0,0l-2.3-2.4l-1.8-3l-1.1-0.9l-1.2-0.3
			l-1.6,0.3l-5.2,1.7l-5.9,3.4l-4.9,3.7l-8.2,5.3l-0.1,1.1l0.8,1.4l0.1,1.4l-0.8,1.4l-1.2,0.6l-1.4-0.2l-8.6-6.4l-5.7-2.5l-1.7-0.4
			l-6-0.1l-5.2,0.5l-2.8,1.1l-2.6,1.7l-4.8,5.9l-4.9,3.9l-2.6,1.3l-5.1,1.3l-3,1.6l0,0l-2.5-0.4l-6.6-2.2l-1-2.3l-0.3-1.5l0.1-2.9
			l-1.6-3.5l-5.5-4.9l-0.5-5.6l-0.1-5.5l-3.8-3.7l-2.8-0.4l1.6-3.2l3.7-3.7l5.3-2.5l0.8-0.8l2.8-5.5l5.4-6.5l3.6-2.9l4-2.4l-0.1-1.2
			l-0.7-0.9l-0.4-2.7l0.3-3.3l1.8-2.3l6.6-2.9l0.4-1.2l-0.6-1.2l-2.3-0.6l-3.2-3.2l-3.2-0.1l-1.1,0.9l-2.9-0.2l-0.8-0.5l-2.3-2.4
			l-8.7-23.3l3.7-7.9l2.7-4.9l3-2.8l1.1,0.1l1.1-0.4l0.3-1.2l-2.6-3l-4.1-3.4l-3.6-5l0.7-7.1l0.9-0.9l1.4-0.6l2.6-3.4l0.2-3.1
			l0.4-1.2l10.6-9.1l-0.7-1.8l-0.1-3.8l0.7-0.7l5.4-1.4l-1.7-7.3l-2.6-1.9l-0.6-0.9l-1.6-7.5l-2-3.6l3.5-6.1l0.8-2.6l0-10.1
			l-0.3-4.6l0.2-6l-0.4-1.1v-5.9l3.9-4.6l2.7-1l3-6.4l2.9-3.6l0,0l1.5-0.1l6.8-3.4l1.7-2.8l1.3-3.8l1.6-1.4l3.1-1.9l0.4-0.9
			l-0.1-3.8l0.3-1.1l0.7-0.8l1.8-1l7.4-2.3l1.9-1.2l0.6-1.1l31.4,14.1l12.8,6.4l0,0l-0.5,0.7l-0.4,6.8l0.7,3.2l-1,4.5l-3.9,12.6
			l-4.2,3.4l-5.6,7l-1.8,1l-2.6,3.9l-0.4,1.3l0.9,5l1.2,0.7l0.1,1l-3.8,5.2l-1.3,0.6l-1.2,3.1l-1.7,10l0.7,8.5l-1.6,4.4l0.8,6.5
			l-0.1,5l1.2,3.7l4,4l0.3,2l-0.8,4l0.1,1.6l0.8,2.1l2.3,1.6l3,0l0.8,0.8l5.9,10l0.3,4.7l0.5,1.1l0.6,0.7l1.4,0.5L171,273z"/>
		<path id="BO-Pando" class="st0" d="M91.5,135.2L81,113.7L53.9,69h3.4l3.1-0.6l14.1,1.3l9.6,2.1l3.7-0.6l-0.2,5.7l2.8-0.1l5.2-1.3
			l2.3-1.9l5.1-1.8l2.5-0.5l2.7-1.2l6.6-9.4l0.2-1.2l0.7-1.1l1.7-1.2l1.8-0.7l6.4-0.1l2,0.4l3.2,2l1.6-0.8l1.2-3.2l2.7-3.8l1.1-1.1
			l5.6-2.7l5.2-3.5l0.1-1.5l4.1-0.5l1.8,0.5l4.5-2.3l7.7-7.5l5.6-4.3l4.2-1.8l1.2-1.8l6.4-1l1.8,0.3l11-3.9l4.1-0.9l4.4,0.2l9.5-0.4
			l5.9,2.7l1.5,0l2.3-2.6l0.2-1.4l2.9-2.6l1.5,0.3l1.3,0.7l3.2,5.9l-1.5,4.4l0.3,4.1l1.1,2.4l0.6,5l-0.9,3l-2.8,2.8l-0.7,1.6l0,0
			l-2.6,0.4l-0.8,0.7l-2.2,3l-5.4,3.3l-4.5,5.2l-7.1,5l-2.5-0.6l-1.2,0.1l-3.2,2.5l1.5,0.1l0.7,0.6l-1.3,4.2l-3.5,6l-4.7,6.8
			l0.1,1.1l-1.1,1.9l-1,0.8l-5.8,3.2l-6.4-0.1l-2.9,0.6l-0.9,1.3l-1,4.4l0.4,2.7l-2.1,1.8l-5.7,1.8l-0.5,0.9l-0.7,6.7l1.4,2.5
			l1.3,3.9l-0.1,1.4l-1.3,4.1l-0.6,3.9l0.6,2.6l-0.6,1.2l-0.7,0.6l0,0l-12.8-6.4l-31.4-14.1l-0.6,1.1l-1.9,1.2l-7.4,2.3l-1.8,1
			l-0.7,0.8l-0.3,1.1l0.1,3.8l-0.4,0.9l-3.1,1.9l-1.6,1.4l-1.3,3.8l-1.7,2.8l-6.8,3.4L91.5,135.2z"/>
		<path id="BO-Oruro" class="st0" d="M74.7,375.1l3-1.6l5.1-1.3l2.6-1.3l4.9-3.9l4.8-5.9l2.6-1.7l2.8-1.1l5.2-0.5l6,0.1l1.7,0.4
			l5.7,2.5l8.6,6.4l1.4,0.2l1.2-0.6l0.8-1.4l-0.1-1.4l-0.8-1.4l0.1-1.1l8.2-5.3l4.9-3.7l5.9-3.4l5.2-1.7l1.6-0.3l1.2,0.3l1.1,0.9
			l1.8,3l2.3,2.4l0,0l5.5,3.9l2.3,2.2l4.2,5.6l3.3,7.5l0,0l-0.6,1.3l-3.6,1.2l-0.7,0.7l-0.4,3.8l0.2,1.9l0.8,1.1l2.5,1l2.5-0.4
			l3.3,0.8l-0.4,1l-1.7,1.1l-1.6,0.6l-2.7,1.9l-0.6,6l1.9,4.2l0.7,1l4.4,3.6l4.8,1.8l2.3,0.1l2.4,0.8l1.2,1l2,6.2l1.2,2.7l2,2.9
			l4.6,5.4l0.1,0.9l-0.7,1l-1.2,0.4l-9,0.7l-2.9-0.1l-2.9,0.5l-3.4,1.9l-5.8,5.5l-1.8,1.2l-36,15.7l-5.7,2.4l-1.6,0.3l-11.8-4.2
			l-13.4-4.3l-10.4-3.8l0,0l5.4-5.9l-2-2.9l-2.5-2.2l-3.8-1.7l-5.9-6.2l-4.9-3.4l-2.8-4.9l1.4-3.1l-2.8-6.2l-1-3.7l-0.3-4.3l0.4-3.4
			l-0.7-1.9l-1.5-2.2l-0.7-7.2l-1.9-2.1l-0.6-1.3L72,379l2.4-1.7l0.4-0.8L74.7,375.1z"/>
		<path id="BO-Potosi" class="st0" d="M236.1,530.6l0.1,1.8l-0.8,2.6l-0.7,1.2l-0.9,0.7l-1.3,3.6l-0.3,1.9l2.3,2.6l2.8,4.4l1.4,6.2
			l-0.7,0.2l0,0l-17.2,0.2l-2.5,0.4l-3.9,0.1l-2.6-1.7l-4.8-6.2l-6.4-4.6l-6.1-2.3l-0.6,0.7l-2.3,10.7l-0.7,1.9l-1.6,1.8l-11.4,3.4
			l-3,0.2l-2,1.4l-1.5,6.7l-0.1,2.4l-6.4,2.3l-4,2.1l0.4,5l-4.7,3.9l-2.5,4.6l-16.6,3.6l-9-1.1l-3.5-2.3l-0.3-5.2l1.4-7.2l-3.5-11.5
			l0.4-1.2l0-1.6l-0.9-6.1l-1.2-2l-1-0.6l-3.7-3.9l-0.1-5.4l-0.7-4.4l-1.4-3.5l-2-2.6l-0.1-14.1l-9.9-16.1l-3.4-0.1l-1.1-0.5
			l-1.2-1.6l-0.2-1l0-6.1l1.5-2.1l2.4-1.7l0.2-0.9l-1.1-1.2l-2.4-1.7l-3.4-1.3l-2.6-1.5l-1.4-1.5l-1.2-2.1l-0.1-2.3l0.8-1l1.3-0.6
			l-0.7-4.5l-1.9-4.5l-0.8-1l0.3-1.1l5.3-1.5l3.1-0.1l2.3-6.1l-1.8-3.7l-5.2-4.1l0.1-1.7l4.8-6.1l0,0l10.4,3.8l13.4,4.3l11.8,4.2
			l1.6-0.3l5.7-2.4l36-15.7l1.8-1.2l5.8-5.5l3.4-1.9l2.9-0.5l2.9,0.1l9-0.7l1.2-0.4l0.7-1l-0.1-0.9l-4.6-5.4l-2-2.9l-1.2-2.7l-2-6.2
			l-1.2-1l-2.4-0.8l-2.3-0.1l-4.8-1.8l-4.4-3.6l-0.7-1l-1.9-4.2l0.6-6l2.7-1.9l1.6-0.6l1.7-1.1l0.4-1l-3.3-0.8l-2.5,0.4l-2.5-1
			l-0.8-1.1l-0.2-1.9l0.4-3.8l0.7-0.7l3.6-1.2l0.6-1.3l0,0l7.1-0.4l3.4,0.4l1.4-0.2l6.6-5.1l3.6-0.8l2.5,0.3l0.8,0.5l1.2,2.3
			l2.5,2.8l2.3-0.5l2.9,1.4l4.2,3.1l2.7,2.6l3.3,4.3l3.7,4l5.5,4.3l0,0l-1,0.4l-3.5-1.1l-8.9-2.2l-0.3,3.4l1.7,4.1l1,5.7l6.9,1.2
			l0.8,0.7l0.1,0.9l-0.3,0.9l-3.3,3.2l0.4,5.4l-1.7,3.5l0.9,2.8l5.4,6.5l0.4,1.4l3.3,2.3l6.5,3l4.1,0.2l1.2-0.8l1.1-0.3l3.2,0.3
			l2.4,2.1l1.5,3.6l-0.2,1.9l1.2,4l2.8,4.2l-2.2,3.2l-4.6,4.5l-5.9,3.3l-1.6,0.4l-2.7,0.1l-3.8,0.7l-3.9,2.3l-2.1,7.4l0.1,2.6
			l3,11.9l-0.6,2.4l-2.7,5.5l-2.1,6.2l-0.5,6.6l-1.3,3.9l-0.3,8.2l0.1,1.5l1.1,2.3l5,5L236.1,530.6z"/>
		<path id="BO-Santa" class="st0" d="M494.3,433l-37.3-2.3l-26.6,7.2l-47.5,8.2l-7.2,19.3l-12,17.4l0,0l-45.9,0.2l-5.4-3.1l-3.7,2.5
			l-6.4-0.5l-0.7-0.6l-0.7-11.7l0-3.5l-0.4-3.2l-1.3-3.5l-0.1-9.2l-1.6-21.5l1.2-9.3l-6.1-0.1l-0.6,0.8l-0.2,3.2l-0.6,1.1l-0.8,0.7
			l-0.9,0.2l-1.9-0.4l-1.8-3.9l-9.8-11.1l-1.4-3.6l-0.1-2.9l-1.1-0.7l0,0l2.1-3.1l-0.5-4.2l-3.3-2.6l-1.3-0.5l-0.6-0.6l-2.3-7.3
			l-6.5-10.6l-3-3.4l-0.1-1.5l0.3-1l2.5-2l2.8-2.9l6.8-9.8l0.6-1.2l0-2.1l2.5-1.9l5.1,0l0.2-3.1l-0.4-0.9l-4.8-5.8l-2.1-1.7l-13-8.5
			l-3-6.1l-0.5-1.6l-0.2-3.7l1.6-4l2-3.4l2.5-7.2l-0.9-9.2l-0.8-4.5l-0.9-2.5l-0.3-3.7l1-2.9l0,0l3.4,0.8l4.3,0.3l46.3,1.9l1.2-0.7
			l-2.9-5.8l-1.8-2.8l-5.8-3.1l-2.2-2.2l-8-12.3l-2.8-6.2l-0.9-3.4l0.9-9.6l-0.9-4l-0.5-1.2l16.1-4.5l83.8-48.3l0,0l0.7,0.8l2.4,1.1
			l1.2,0.1l19.1-2.6l1.5,2.1l2,1.8l7,4.2l2,0.1l2.9,2.4l8.4,2.8l3.9,7.9l-0.7,1.8l-1.1,1.6l-1.6,1.5l-0.7,2.9l1.3,5.3l1,1.4
			l6.2,12.9l0.9,20.3l-13.1,0.2l14.5,16.5l2.8,34.1l72.4,2.9l1-0.4l1.1-1.6l2.6-0.2l0.1,5.1l-0.9,4.8l-3.1,2.9l-2,3.1l-0.3,1.3
			l0.5,9.9l1.6,4.8l0.7,4.5l-0.1,3.4l0.8,3l0.8,0.9l3.2,0.9l1.9,1.2l5.4,3.8l0.5,1.1l0.7,0.7l3.2,1.8l1.4,0.1l3.4-1.7l6.6,5.8
			l-0.9,0.8l-0.6,1.1l0.9,2.2l1.8,1.8l-0.1,5.2l8.3,15.8l-1.3,1.9l-0.5,1.2l-8.7,27.8l2,0.3l0.8,5.7l-3,0.2l-14.5,30.7l11.3,10.4
			l-2.1,2.4l-8.8,5.3l-2.1,0.8l0.9-2.3l0.2-1.5l0.1-4.3l-0.8-6.9l-4.9-3L494.3,433z"/>
		<path id="BO-Tarija" class="st0" d="M345.1,562.3l-0.6-0.1l-4.5-3.7l-1.2-1.8l-0.4-4.4l-0.7-0.9l-47.3,0.2l-2.2,4.2l-5.6,14.3
			l-1.9,2.7l-2.1,1.9l-1.3,2.5l-1.1,3.5l-0.2,4.9l-0.7,3.5l-0.6,1.3l-0.9,0.4l-0.4-1.2l-0.2-3.4l-0.4-1.4l-3.8-4.2l-0.1-1.3l0.5-1.6
			l-0.8-3l-2.7-4.8l-0.9-6.7l-1.9-2.1l-3.8-1.7l-1.4,0.3l-10.7-3.4l-0.8-0.8l-8.5,0.2l0,0l0.7-0.2l-1.4-6.2l-2.8-4.4l-2.3-2.6
			l0.3-1.9l1.3-3.6l0.9-0.7l0.7-1.2l0.8-2.6l-0.1-1.8l0,0l2.6-25.2l0.6-1.3l3.5,0.4l7,3.6l1.8,1.9l1.6,0.8l2.2-0.5l0.9-2.2l0.3-2.2
			l1.6-2.5l2.8,0.5l3.1,3.5l3.3,2.9l5.5,2.2l5.5,0.4l0.8-0.5l0.6-1l0.7-3.9l-0.1-4.8l0.4-1.1l4.4,1.2l1.1,1.6l2.8,2l39.8,0.3
			l32.3-0.1l0,0l0.1,2.5L345.1,562.3z"/>
	</g>
</g>
<g id="lineas">
	<path class="st1" d="M247.2,245.7l-28.7,6.5l-49.7-3.2l-24.9,12.5L120,278.7l-6,17.6l4.6,8.3v10.6l6.5,9.7l39,46.5l1.8,22.7
		l18.9-1.4l23.3,9.3l4.4,45.5c0,0,11.1-21.1,14.3-19.8c3.2,1.4,12.9-8.8,12.9-8.8l37.4,15.3"/>
	<polyline class="st1" points="212.6,447.3 192.4,461.8 193.8,503.1 212.6,520 232.2,539.5 	"/>
	<line class="st2" x1="165.9" y1="394" x2="173.4" y2="386.4"/>
	<polyline class="st3" points="164.1,371.3 190.6,355 183.4,341.1 200.8,341.9 225.6,333.7 239.8,326.1 254.8,330.5 301.2,338.6 
		314.3,361.5 	"/>
	<polyline class="st1" points="322.8,340 301.2,338.6 326,350.8 	"/>
	<line class="st1" x1="120" y1="278.7" x2="105.2" y2="269.8"/>
	<path class="st2" d="M143.9,261.4"/>
	<line class="st1" x1="143.9" y1="261.4" x2="137.5" y2="225.2"/>
</g>
<g id="puntos">
	<g>
		<path d="M251.8,250.3h-6.5v-6.5h6.5V250.3z M247.2,248.5h2.8v-2.8h-2.8V248.5z"/>
	</g>
	<g>
		<path d="M223.2,256.8h-6.5v-6.5h6.5V256.8z M218.6,254.9h2.8v-2.8h-2.8V254.9z"/>
	</g>
	<g>
		<path d="M173.5,253.5H167v-6.5h6.5V253.5z M168.9,251.7h2.8v-2.8h-2.8V251.7z"/>
	</g>
	<g>
		<path d="M142.1,229.8h-6.5v-6.5h6.5V229.8z M137.5,228h2.8v-2.8h-2.8V228z"/>
	</g>
	<g>
		<path d="M148.5,263.2h-6.5v-6.5h6.5V263.2z M143.9,261.4h2.8v-2.8h-2.8V261.4z"/>
	</g>
	<g>
		<path d="M121.8,283.3h-6.5v-6.5h6.5V283.3z M117.2,281.5h2.8v-2.8h-2.8V281.5z"/>
	</g>
	<g>
		<path d="M118.6,298.1h-6.5v-6.5h6.5V298.1z M114,296.3h2.8v-2.8H114V296.3z"/>
	</g>
	<g>
		<path d="M128.3,296.7h-6.5v-6.5h6.5V296.7z M123.7,294.9h2.8v-2.8h-2.8V294.9z"/>
	</g>
	<g>
		<path d="M123.2,306.4h-6.5V300h6.5V306.4z M118.6,304.6h2.8v-2.8h-2.8V304.6z"/>
	</g>
	<g>
		<path d="M123.2,319.8h-6.5v-6.5h6.5V319.8z M118.6,318h2.8v-2.8h-2.8V318z"/>
	</g>
	<g>
		<path d="M129.7,329.5h-6.5V323h6.5V329.5z M125.1,327.7h2.8v-2.8h-2.8V327.7z"/>
	</g>
	<g>
		<path d="M170.5,398.6h-6.5v-6.5h6.5V398.6z M165.9,396.8h2.8V394h-2.8V396.8z"/>
	</g>
	<g>
		<path d="M165.9,376h-6.5v-6.5h6.5V376z M161.3,374.1h2.8v-2.8h-2.8V374.1z"/>
	</g>
	<g>
		<path d="M175.3,391h-6.5v-6.5h6.5V391z M170.6,389.2h2.8v-2.8h-2.8V389.2z"/>
	</g>
	<g>
		<path d="M186.7,397.2h-6.5v-6.5h6.5V397.2z M182.1,395.4h2.8v-2.8h-2.8V395.4z"/>
	</g>
	<g>
		<path d="M210,406.5h-6.5V400h6.5V406.5z M205.4,404.7h2.8v-2.8h-2.8V404.7z"/>
	</g>
	<g>
		<path d="M217.2,449.2h-6.5v-6.5h6.5V449.2z M212.6,447.3h2.8v-2.8h-2.8V447.3z"/>
	</g>
	<g>
		<path d="M231.5,432.2H225v-6.5h6.5V432.2z M226.9,430.4h2.8v-2.8h-2.8V430.4z"/>
	</g>
	<g>
		<path d="M241.7,420.6h-6.5v-6.5h6.5V420.6z M237,418.8h2.8V416H237V418.8z"/>
	</g>
	<g>
		<path d="M279,438.7h-6.5v-6.5h6.5V438.7z M274.4,436.8h2.8V434h-2.8V436.8z"/>
	</g>
	<g>
		<path d="M197,466.4h-6.5v-6.5h6.5V466.4z M192.4,464.5h2.8v-2.8h-2.8V464.5z"/>
	</g>
	<g>
		<path d="M198.4,504.9h-6.5v-6.5h6.5V504.9z M193.8,503.1h2.8v-2.8h-2.8V503.1z"/>
	</g>
	<g>
		<path d="M316.1,363.3h-6.5v-6.5h6.5V363.3z M311.5,361.5h2.8v-2.8h-2.8V361.5z"/>
	</g>
	<g>
		<path d="M330.6,355.4h-6.5V349h6.5V355.4z M326,353.6h2.8v-2.8H326V353.6z"/>
	</g>
	<g>
		<path d="M327.4,344.6h-6.5v-6.5h6.5V344.6z M322.8,342.8h2.8V340h-2.8V342.8z"/>
	</g>
	<g>
		<path d="M305.8,343.2h-6.5v-6.5h6.5V343.2z M301.2,341.4h2.8v-2.8h-2.8V341.4z"/>
	</g>
	<g>
		<path d="M234.1,544.1h-6.5v-6.5h6.5V544.1z M229.5,542.3h2.8v-2.8h-2.8V542.3z"/>
	</g>
	<g>
		<path d="M206.8,353.6h-6.5v-6.5h6.5V353.6z M202.2,351.8h2.8V349h-2.8V351.8z"/>
	</g>
	<g>
		<path d="M205.4,346.5h-6.5V340h6.5V346.5z M200.8,344.6h2.8v-2.8h-2.8V344.6z"/>
	</g>
	<g>
		<path d="M213.2,341.4h-6.5v-6.5h6.5V341.4z M208.6,339.5h2.8v-2.8h-2.8V339.5z"/>
	</g>
	<g>
		<path d="M219.7,339.3h-6.5v-6.5h6.5V339.3z M215.1,337.5h2.8v-2.8h-2.8V337.5z"/>
	</g>
	<g>
		<path d="M227.4,335.5H221v-6.5h6.5V335.5z M222.8,333.7h2.8v-2.8h-2.8V333.7z"/>
	</g>
	<g>
		<path d="M241.7,330.8h-6.5v-6.5h6.5V330.8z M237,328.9h2.8v-2.8H237V328.9z"/>
	</g>
	<g>
		<path d="M256.6,332.3h-6.5v-6.5h6.5V332.3z M252,330.5h2.8v-2.8H252V330.5z"/>
	</g>
	<g>
		<path d="M230.7,355.4h-6.5V349h6.5V355.4z M226.1,353.6h2.8v-2.8h-2.8V353.6z"/>
	</g>
	<g>
		<path d="M220.4,347.9H214v-6.5h6.5V347.9z M215.8,346h2.8v-2.8h-2.8V346z"/>
	</g>
	<g>
		<path d="M188.1,345.8h-6.5v-6.5h6.5V345.8z M183.4,343.9h2.8v-2.8h-2.8V343.9z"/>
	</g>
	<g>
		<path d="M197,345.8h-6.5v-6.5h6.5V345.8z M192.4,343.9h2.8v-2.8h-2.8V343.9z"/>
	</g>
	<g>
		<path d="M195.2,356.8h-6.5v-6.5h6.5V356.8z M190.6,355h2.8v-2.8h-2.8V355z"/>
	</g>
	<g>
		<path d="M109.8,273h-6.5v-6.5h6.5V273z M105.2,271.2h2.8v-2.8h-2.8V271.2z"/>
	</g>
</g>
</svg>
