<?xml version="1.0"?>
<svg xmlns="http://www.w3.org/2000/svg" viewBox="0 0 64 64">
    <path d="M 48 6 C 43.589 6 40 9.589 40 14 C 40 14.048 40.000953 14.094578 40.001953 14.142578 L 20.195312 25.195312 C 18.932312 24.412312 17.494 24 16 24 C 11.589 24 8 27.589 8 32 C 8 36.411 11.589 40 16 40 C 17.494 40 18.932313 39.587688 20.195312 38.804688 L 40.001953 49.857422 C 40.000953 49.904422 40 49.952 40 50 C 40 50.339 40.027359 50.670047 40.068359 50.998047 C 40.079359 51.089047 40.096328 51.179531 40.111328 51.269531 C 40.152328 51.524531 40.205531 51.774484 40.269531 52.021484 C 40.290531 52.102484 40.308031 52.184625 40.332031 52.265625 C 40.423031 52.572625 40.53025 52.873062 40.65625 53.164062 C 40.69125 53.245063 40.733484 53.322344 40.771484 53.402344 C 40.872484 53.616344 40.982562 53.825297 41.101562 54.029297 C 41.135562 54.087297 41.160312 54.149031 41.195312 54.207031 C 41.211312 54.233031 41.233953 54.253344 41.251953 54.277344 C 42.671953 56.510344 45.163 58 48 58 C 52.411 58 56 54.411 56 50 C 56 45.589 52.411 42 48 42 C 46.547 42 45.143344 42.391766 43.902344 43.134766 L 24 32.027344 L 24 32 L 24 31.972656 L 43.902344 20.865234 C 43.961344 20.900234 44.025938 20.926938 44.085938 20.960938 C 44.268937 21.063938 44.454531 21.158094 44.644531 21.246094 C 44.774531 21.306094 44.903156 21.364969 45.035156 21.417969 C 45.211156 21.488969 45.391266 21.549422 45.572266 21.607422 C 45.715266 21.653422 45.855953 21.700281 46.001953 21.738281 C 46.197953 21.789281 46.399609 21.825328 46.599609 21.861328 C 46.729609 21.884328 46.855328 21.915641 46.986328 21.931641 C 47.321328 21.974641 47.659 22 48 22 C 52.411 22 56 18.411 56 14 C 56 9.589 52.411 6 48 6 z M 48 8 C 51.309 8 54 10.691 54 14 C 54 17.309 51.309 20 48 20 C 47.719 20 47.442969 19.974547 47.167969 19.935547 C 47.077969 19.922547 46.988438 19.903719 46.898438 19.886719 C 46.709437 19.851719 46.521891 19.807906 46.337891 19.753906 C 46.246891 19.727906 46.156406 19.699922 46.066406 19.669922 C 45.838406 19.591922 45.614484 19.502484 45.396484 19.396484 C 45.367484 19.382484 45.337594 19.372422 45.308594 19.357422 C 45.047594 19.225422 44.795734 19.071391 44.552734 18.900391 C 44.011734 18.520391 43.526859 18.053859 43.130859 17.505859 C 42.808859 17.058859 42.183375 16.956297 41.734375 17.279297 C 41.286375 17.602297 41.184812 18.227781 41.507812 18.675781 C 41.723813 18.975781 41.964797 19.251625 42.216797 19.515625 L 22.482422 30.529297 C 22.139422 30.720297 21.939656 31.094328 21.972656 31.486328 C 21.986656 31.656328 22 31.827 22 32 C 22 32.173 21.987609 32.343672 21.974609 32.513672 C 21.941609 32.904672 22.139422 33.278703 22.482422 33.470703 L 43.457031 45.175781 C 43.795031 45.363781 44.209391 45.342188 44.525391 45.117188 C 45.548391 44.386187 46.75 44 48 44 C 51.309 44 54 46.691 54 50 C 54 53.309 51.309 56 48 56 C 45.795 56 43.869172 54.800437 42.826172 53.023438 C 42.736172 52.869437 42.652172 52.711781 42.576172 52.550781 C 42.548172 52.490781 42.516234 52.434047 42.490234 52.373047 C 42.396234 52.154047 42.315047 51.929172 42.248047 51.701172 C 42.230047 51.640172 42.217172 51.577625 42.201172 51.515625 C 42.153172 51.330625 42.112031 51.142125 42.082031 50.953125 C 42.071031 50.885125 42.060734 50.817047 42.052734 50.748047 C 42.021734 50.500047 42 50.252 42 50 C 42 49.794 42.01125 49.589672 42.03125 49.388672 L 42.03125 49.386719 C 42.09125 48.793719 42.237703 48.217969 42.470703 47.667969 C 42.685703 47.158969 42.4465 46.571469 41.9375 46.355469 C 41.4295 46.141469 40.843906 46.379672 40.628906 46.888672 C 40.509906 47.169672 40.411172 47.457047 40.326172 47.748047 L 20.632812 36.757812 C 20.480812 36.672812 20.313484 36.630859 20.146484 36.630859 C 19.937484 36.630859 19.728734 36.697172 19.552734 36.826172 C 18.511734 37.594172 17.283 38 16 38 C 12.691 38 10 35.309 10 32 C 10 28.691 12.691 26 16 26 C 17.283 26 18.511734 26.406828 19.552734 27.173828 C 19.869734 27.406828 20.290812 27.432234 20.632812 27.240234 L 41.523438 15.582031 C 41.871437 15.388031 42.07125 15.006375 42.03125 14.609375 C 42.01025 14.409375 42 14.206 42 14 C 42 10.691 44.691 8 48 8 z M 16 17 C 15.447 17 15 17.448 15 18 L 15 20 C 15 20.552 15.447 21 16 21 C 16.553 21 17 20.552 17 20 L 17 18 C 17 17.448 16.553 17 16 17 z M 8.875 18.882812 C 8.7463125 18.898906 8.61875 18.940516 8.5 19.009766 C 8.021 19.285766 7.8577656 19.898953 8.1347656 20.376953 L 9.1347656 22.107422 C 9.3207656 22.428422 9.6559531 22.607422 10.001953 22.607422 C 10.171953 22.607422 10.343 22.565609 10.5 22.474609 C 10.979 22.198609 11.142234 21.585422 10.865234 21.107422 L 9.8652344 19.376953 C 9.6574844 19.017703 9.2610625 18.834531 8.875 18.882812 z M 4 24.007812 C 3.6132813 23.959531 3.2167656 24.14075 3.0097656 24.5 C 2.7337656 24.978 2.8989531 25.589234 3.3769531 25.865234 L 5.1074219 26.865234 C 5.2654219 26.956234 5.4364688 27 5.6054688 27 C 5.9514688 27 6.2876563 26.821 6.4726562 26.5 C 6.7496563 26.022 6.5864219 25.410766 6.1074219 25.134766 L 4.3769531 24.134766 C 4.2574531 24.065516 4.1289062 24.023906 4 24.007812 z M 2 31 C 1.447 31 1 31.448 1 32 C 1 32.552 1.447 33 2 33 L 4 33 C 4.553 33 5 32.552 5 32 C 5 31.448 4.553 31 4 31 L 2 31 z M 5.4824219 37.007812 C 5.353625 37.023906 5.2266719 37.065516 5.1074219 37.134766 L 3.3769531 38.134766 C 2.8979531 38.410766 2.7327656 39.022 3.0097656 39.5 C 3.1947656 39.821 3.5309531 40 3.8769531 40 C 4.0469531 40 4.2199531 39.956234 4.3769531 39.865234 L 6.1074219 38.865234 C 6.5864219 38.589234 6.7506094 37.978 6.4746094 37.5 C 6.2661094 37.14075 5.8688125 36.959531 5.4824219 37.007812 z M 10.123047 41.400391 C 9.7363281 41.352484 9.3417656 41.534078 9.1347656 41.892578 L 8.1347656 43.623047 C 7.8587656 44.102047 8.022 44.714234 8.5 44.990234 C 8.657 45.081234 8.8280469 45.123047 8.9980469 45.123047 C 9.3440469 45.123047 9.6802344 44.944047 9.8652344 44.623047 L 10.865234 42.892578 C 11.142234 42.414578 10.979 41.801391 10.5 41.525391 C 10.3805 41.456391 10.251953 41.416359 10.123047 41.400391 z M 16 43 C 15.447 43 15 43.448 15 44 L 15 46 C 15 46.552 15.447 47 16 47 C 16.553 47 17 46.552 17 46 L 17 44 C 17 43.448 16.553 43 16 43 z"/>
</svg>
