<?xml version="1.0"?>
<svg xmlns="http://www.w3.org/2000/svg" viewBox="0 0 50 50">
    <path style="text-indent:0;text-align:start;line-height:normal;text-transform:none;block-progression:tb;-inkscape-font-specification:Bitstream Vera Sans" d="M 25 2 C 12.309296 2 2 12.309296 2 25 C 2 37.690704 12.309296 48 25 48 C 37.690704 48 48 37.690704 48 25 C 48 12.309296 37.690704 2 25 2 z M 25 4 C 36.609824 4 46 13.390176 46 25 C 46 36.609824 36.609824 46 25 46 C 13.390176 46 4 36.609824 4 25 C 4 13.390176 13.390176 4 25 4 z M 14.8125 18 A 1.001098 1.001098 0 0 0 15 20 L 35 20 A 1.0001 1.0001 0 1 0 35 18 L 15 18 A 1.0001 1.0001 0 0 0 14.90625 18 A 1.001098 1.001098 0 0 0 14.8125 18 z M 14.8125 24 A 1.001098 1.001098 0 0 0 15 26 L 35 26 A 1.0001 1.0001 0 1 0 35 24 L 15 24 A 1.0001 1.0001 0 0 0 14.90625 24 A 1.001098 1.001098 0 0 0 14.8125 24 z M 14.8125 30 A 1.001098 1.001098 0 0 0 15 32 L 35 32 A 1.0001 1.0001 0 1 0 35 30 L 15 30 A 1.0001 1.0001 0 0 0 14.90625 30 A 1.001098 1.001098 0 0 0 14.8125 30 z" overflow="visible" font-family="Bitstream Vera Sans"/>
</svg>
