<?xml version="1.0"?>
<svg xmlns="http://www.w3.org/2000/svg" viewBox="0 0 80 80">
    <path d="M 40 7 C 35.593567 7 32 10.593567 32 15 C 32 19.406433 35.593567 23 40 23 C 44.406433 23 48 19.406433 48 15 C 48 10.593567 44.406433 7 40 7 z M 40 9 C 43.325553 9 46 11.674447 46 15 C 46 18.325553 43.325553 21 40 21 C 36.674447 21 34 18.325553 34 15 C 34 11.674447 36.674447 9 40 9 z M 37 14 A 1 1 0 0 0 36 15 A 1 1 0 0 0 37 16 A 1 1 0 0 0 38 15 A 1 1 0 0 0 37 14 z M 43 14 A 1 1 0 0 0 42 15 A 1 1 0 0 0 43 16 A 1 1 0 0 0 44 15 A 1 1 0 0 0 43 14 z M 40 32 C 35.593567 32 32 35.593567 32 40 C 32 44.406433 35.593567 48 40 48 C 44.406433 48 48 44.406433 48 40 C 48 35.593567 44.406433 32 40 32 z M 40 34 C 43.325553 34 46 36.674447 46 40 C 46 43.325553 43.325553 46 40 46 C 36.674447 46 34 43.325553 34 40 C 34 36.674447 36.674447 34 40 34 z M 37 39 A 1 1 0 0 0 36 40 A 1 1 0 0 0 37 41 A 1 1 0 0 0 38 40 A 1 1 0 0 0 37 39 z M 43 39 A 1 1 0 0 0 42 40 A 1 1 0 0 0 43 41 A 1 1 0 0 0 44 40 A 1 1 0 0 0 43 39 z M 40 57 C 35.593567 57 32 60.593567 32 65 C 32 69.406433 35.593567 73 40 73 C 44.406433 73 48 69.406433 48 65 C 48 60.593567 44.406433 57 40 57 z M 40 59 C 43.325553 59 46 61.674447 46 65 C 46 68.325553 43.325553 71 40 71 C 36.674447 71 34 68.325553 34 65 C 34 61.674447 36.674447 59 40 59 z M 37 64 A 1 1 0 0 0 36 65 A 1 1 0 0 0 37 66 A 1 1 0 0 0 38 65 A 1 1 0 0 0 37 64 z M 43 64 A 1 1 0 0 0 42 65 A 1 1 0 0 0 43 66 A 1 1 0 0 0 44 65 A 1 1 0 0 0 43 64 z"/>
</svg>
