<?xml version="1.0" encoding="iso-8859-1"?>
<!-- Generator: Adobe Illustrator 20.0.0, SVG Export Plug-In . SVG Version: 6.00 Build 0)  -->
<svg version="1.1" id="Layer_1" xmlns="http://www.w3.org/2000/svg" xmlns:xlink="http://www.w3.org/1999/xlink" x="0px" y="0px"
	 viewBox="0 0 40 40" style="enable-background:new 0 0 40 40;" xml:space="preserve">
<g>
	<polygon style="fill:#FFFFFF;" points="3.5,37.5 3.5,2.5 21.793,2.5 30.5,11.207 30.5,37.5 	"/>
	<g>
		<path style="fill:#788B9C;" d="M21.586,3L30,11.414V37H4V3H21.586 M22,2H3v36h28V11L22,2L22,2z"/>
	</g>
</g>
<g>
	<polygon style="fill:#FFFFFF;" points="21.5,11.5 21.5,2.5 21.793,2.5 30.5,11.207 30.5,11.5 	"/>
	<g>
		<path style="fill:#788B9C;" d="M22,3.414L29.586,11H22V3.414 M22,2h-1v10h10v-1L22,2L22,2z"/>
	</g>
</g>
<polygon style="fill:#D6E3ED;" points="30,20 30,37 27.608,37 28.399,38 31,38 31,20 "/>
<g>
	<g>
		<polygon style="fill:#9CACBD;" points="25.04,30.5 29.5,30.5 29.5,22.5 34.5,22.5 34.5,30.5 38.96,30.5 32,39.199 		"/>
	</g>
	<g>
		<path style="fill:#36404D;" d="M34,23v7v1h1h2.919L32,38.399L26.081,31H29h1v-1v-7H34 M35,22h-6v8h-5l8,10l8-10h-5V22L35,22z"/>
	</g>
</g>
<path style="fill:none;stroke:#C74343;stroke-miterlimit:10;" d="M25.5,24.237c0-3.047-18,1.246-18,3.967
	c0,1.164,0.913,1.296,1.197,1.296c3.775,0,11.31-18,5.911-18c-3.063,0,4.896,14.143,9.301,14.143
	C25.009,25.643,25.5,25.07,25.5,24.237z"/>
</svg>
