<?xml version="1.0"?>
<svg xmlns="http://www.w3.org/2000/svg" viewBox="0 0 50 50">
    <path style="line-height:normal;text-indent:0;text-align:start;text-decoration-line:none;text-decoration-style:solid;text-decoration-color:#000;text-transform:none;block-progression:tb;isolation:auto;mix-blend-mode:normal" d="M 23 4 C 19.704545 4 17 6.7045455 17 10 L 17 31 L 19 31 L 19 10 C 19 7.7954545 20.795455 6 23 6 L 26 6 C 27.685058 6 29.124953 7.0524003 29.712891 8.53125 C 29.216554 8.8000353 28.570392 9.1791798 27.914062 9.6542969 C 26.56623 10.629993 25 12.015854 25 14 L 25 15 L 29 15 A 2 2 0 0 0 31 17 A 2 2 0 0 0 33 15 L 37 15 L 37 14 C 37 12.015854 35.43377 10.629993 34.085938 9.6542969 C 33.003128 8.8704509 32.115736 8.4321875 31.736328 8.2519531 C 30.981708 5.8001018 28.688086 4 26 4 L 23 4 z M 31 10.152344 C 31.162341 10.229797 31.42535 10.352197 31.771484 10.544922 L 32 11 L 32 10.677734 C 32.267812 10.83572 32.563444 11.021578 32.914062 11.275391 C 33.636978 11.798709 34.170538 12.408564 34.544922 13 L 27.455078 13 C 27.829462 12.408564 28.363023 11.798709 29.085938 11.275391 C 29.436556 11.021578 29.732188 10.83572 30 10.677734 L 30 11 L 31 11 L 31 10.152344 z M 16 33 A 1.0001 1.0001 0 0 0 15 34 L 15 44 L 14 44 L 14 46 L 15 46 L 17 46 L 19 46 L 21 46 L 22 46 L 22 44 L 21 44 L 21 34 A 1.0001 1.0001 0 0 0 20 33 L 16 33 z M 17 35 L 19 35 L 19 44 L 17 44 L 17 35 z" font-weight="400" font-family="sans-serif" white-space="normal" overflow="visible"/>
</svg>
