<?xml version="1.0"?>
<svg xmlns="http://www.w3.org/2000/svg" version="1" viewBox="0 0 50 50" enable-background="new 0 0 50 50">
    <path style="text-indent:0;text-align:start;line-height:normal;text-transform:none;block-progression:tb;-inkscape-font-specification:Bitstream Vera Sans" d="M 20 0 C 19.477778 0 18.939531 0.18546949 18.5625 0.5625 C 18.185469 0.93953051 18 1.4777778 18 2 L 18 5.96875 C 16.337052 5.7652171 15.90625 4.59375 15.90625 4.59375 A 1.0001 1.0001 0 0 0 14.09375 4.59375 C 14.09375 4.59375 13.587179 6 11.5 6 C 9.4128205 6 8.90625 4.59375 8.90625 4.59375 A 1.0001 1.0001 0 0 0 7.09375 4.59375 C 7.09375 4.59375 6.5871795 6 4.5 6 C 2.4128205 6 1.90625 4.59375 1.90625 4.59375 A 1.0001 1.0001 0 0 0 0.875 3.96875 A 1.0001 1.0001 0 0 0 0.75 4 A 1.0001 1.0001 0 0 0 0.09375 5.40625 C 0.09375 5.40625 1.3871795 8 4.5 8 C 6.2429831 8 7.3039808 7.2770979 8 6.5625 C 8.6960192 7.2770979 9.7570169 8 11.5 8 C 13.242983 8 14.303981 7.2770979 15 6.5625 C 15.626374 7.2055936 16.551393 7.8451441 18 7.96875 L 18 12.96875 C 16.337052 12.765217 15.90625 11.59375 15.90625 11.59375 A 1.0001 1.0001 0 0 0 14.09375 11.59375 C 14.09375 11.59375 13.587179 13 11.5 13 C 9.4128205 13 8.90625 11.59375 8.90625 11.59375 A 1.0001 1.0001 0 0 0 7.09375 11.59375 C 7.09375 11.59375 6.5871795 13 4.5 13 C 2.4128205 13 1.90625 11.59375 1.90625 11.59375 A 1.0001 1.0001 0 0 0 0.875 10.96875 A 1.0001 1.0001 0 0 0 0.75 11 A 1.0001 1.0001 0 0 0 0.09375 12.40625 C 0.09375 12.40625 1.3871795 15 4.5 15 C 6.2429831 15 7.3039808 14.277098 8 13.5625 C 8.6960192 14.277098 9.7570169 15 11.5 15 C 13.242983 15 14.303981 14.277098 15 13.5625 C 15.626374 14.205594 16.551393 14.845144 18 14.96875 L 18 19.96875 C 16.337052 19.765217 15.90625 18.59375 15.90625 18.59375 A 1.0001 1.0001 0 0 0 14.09375 18.59375 C 14.09375 18.59375 13.587179 20 11.5 20 C 9.4128205 20 8.90625 18.59375 8.90625 18.59375 A 1.0001 1.0001 0 0 0 7.09375 18.59375 C 7.09375 18.59375 6.5871795 20 4.5 20 C 2.4128205 20 1.90625 18.59375 1.90625 18.59375 A 1.0001 1.0001 0 0 0 0.875 17.96875 A 1.0001 1.0001 0 0 0 0.75 18 A 1.0001 1.0001 0 0 0 0.09375 19.40625 C 0.09375 19.40625 1.3871795 22 4.5 22 C 6.2429831 22 7.3039808 21.277098 8 20.5625 C 8.6960192 21.277098 9.7570169 22 11.5 22 C 13.242983 22 14.303981 21.277098 15 20.5625 C 15.626374 21.205594 16.551393 21.845144 18 21.96875 L 18 26.96875 C 16.337052 26.765217 15.90625 25.59375 15.90625 25.59375 A 1.0001 1.0001 0 0 0 14.09375 25.59375 C 14.09375 25.59375 13.587179 27 11.5 27 C 9.4128205 27 8.90625 25.59375 8.90625 25.59375 A 1.0001 1.0001 0 0 0 7.09375 25.59375 C 7.09375 25.59375 6.5871795 27 4.5 27 C 2.4128205 27 1.90625 25.59375 1.90625 25.59375 A 1.0001 1.0001 0 0 0 0.75 25 A 1.0001 1.0001 0 0 0 0.09375 26.40625 C 0.09375 26.40625 1.3871795 29 4.5 29 C 6.2429831 29 7.3039808 28.277098 8 27.5625 C 8.6960192 28.277098 9.7570169 29 11.5 29 C 13.242983 29 14.303981 28.277098 15 27.5625 C 15.626374 28.205594 16.551393 28.845144 18 28.96875 L 18 33.96875 C 16.337052 33.765217 15.90625 32.59375 15.90625 32.59375 A 1.0001 1.0001 0 0 0 14.09375 32.59375 C 14.09375 32.59375 13.587179 34 11.5 34 C 9.4128205 34 8.90625 32.59375 8.90625 32.59375 A 1.0001 1.0001 0 0 0 7.09375 32.59375 C 7.09375 32.59375 6.5871795 34 4.5 34 C 2.4128205 34 1.90625 32.59375 1.90625 32.59375 A 1.0001 1.0001 0 0 0 0.75 32 A 1.0001 1.0001 0 0 0 0.09375 33.40625 C 0.09375 33.40625 1.3871795 36 4.5 36 C 6.2429831 36 7.3039808 35.277098 8 34.5625 C 8.6960192 35.277098 9.7570169 36 11.5 36 C 13.242983 36 14.303981 35.277098 15 34.5625 C 15.626374 35.205594 16.551393 35.845144 18 35.96875 L 18 40.96875 C 16.337052 40.765217 15.90625 39.59375 15.90625 39.59375 A 1.0001 1.0001 0 0 0 14.09375 39.59375 C 14.09375 39.59375 13.587179 41 11.5 41 C 9.4128205 41 8.90625 39.59375 8.90625 39.59375 A 1.0001 1.0001 0 0 0 7.09375 39.59375 C 7.09375 39.59375 6.5871795 41 4.5 41 C 2.4128205 41 1.90625 39.59375 1.90625 39.59375 A 1.0001 1.0001 0 0 0 0.75 39 A 1.0001 1.0001 0 0 0 0.09375 40.40625 C 0.09375 40.40625 1.3871795 43 4.5 43 C 6.2429831 43 7.3039808 42.277098 8 41.5625 C 8.6960192 42.277098 9.7570169 43 11.5 43 C 13.242983 43 14.303981 42.277098 15 41.5625 C 15.626374 42.205594 16.551393 42.845144 18 42.96875 L 18 47.96875 C 16.337052 47.765217 15.90625 46.59375 15.90625 46.59375 A 1.0001 1.0001 0 0 0 14.09375 46.59375 C 14.09375 46.59375 13.587179 48 11.5 48 C 9.4128205 48 8.90625 46.59375 8.90625 46.59375 A 1.0001 1.0001 0 0 0 7.09375 46.59375 C 7.09375 46.59375 6.5871795 48 4.5 48 C 2.4128205 48 1.90625 46.59375 1.90625 46.59375 A 1.0001 1.0001 0 0 0 0.75 46 A 1.0001 1.0001 0 0 0 0.09375 47.40625 C 0.09375 47.40625 1.3871795 50 4.5 50 C 6.2429831 50 7.3039808 49.277098 8 48.5625 C 8.6960192 49.277098 9.7570169 50 11.5 50 C 13.242983 50 14.303981 49.277098 15 48.5625 C 15.696019 49.277098 16.757017 50 18.5 50 A 1.0001 1.0001 0 0 0 19.09375 49.8125 C 19.376305 49.942507 19.692321 50 20 50 L 30.59375 50 C 30.771609 50 30.956608 49.983235 31.125 49.9375 A 1.0001 1.0001 0 0 0 31.5 50 C 33.242983 50 34.303981 49.277098 35 48.5625 C 35.696019 49.277098 36.757017 50 38.5 50 C 40.242983 50 41.303981 49.277098 42 48.5625 C 42.696019 49.277098 43.757017 50 45.5 50 C 48.612821 50 49.90625 47.40625 49.90625 47.40625 A 1.0001 1.0001 0 0 0 48.875 45.90625 A 1.0001 1.0001 0 0 0 48.09375 46.59375 C 48.09375 46.59375 47.587179 48 45.5 48 C 43.412821 48 42.90625 46.59375 42.90625 46.59375 A 1.0001 1.0001 0 0 0 41.09375 46.59375 C 41.09375 46.59375 40.587179 48 38.5 48 C 36.412821 48 35.90625 46.59375 35.90625 46.59375 A 1.0001 1.0001 0 0 0 34.84375 46 A 1.0001 1.0001 0 0 0 34.09375 46.59375 C 34.09375 46.59375 33.763788 47.477022 32.59375 47.84375 C 32.59131 47.822315 32.596958 47.802815 32.59375 47.78125 L 32.59375 47.75 L 32.03125 42.96875 C 33.462587 42.838786 34.377966 42.201139 35 41.5625 C 35.696019 42.277098 36.757017 43 38.5 43 C 40.242983 43 41.303981 42.277098 42 41.5625 C 42.696019 42.277098 43.757017 43 45.5 43 C 48.612821 43 49.90625 40.40625 49.90625 40.40625 A 1.0001 1.0001 0 0 0 48.875 38.90625 A 1.0001 1.0001 0 0 0 48.09375 39.59375 C 48.09375 39.59375 47.587179 41 45.5 41 C 43.412821 41 42.90625 39.59375 42.90625 39.59375 A 1.0001 1.0001 0 0 0 41.09375 39.59375 C 41.09375 39.59375 40.587179 41 38.5 41 C 36.412821 41 35.90625 39.59375 35.90625 39.59375 A 1.0001 1.0001 0 0 0 34.84375 39 A 1.0001 1.0001 0 0 0 34.09375 39.59375 C 34.09375 39.59375 33.626484 40.831924 31.8125 40.96875 L 31.25 35.96875 C 31.338314 35.97355 31.405821 36 31.5 36 C 33.242983 36 34.303981 35.277098 35 34.5625 C 35.696019 35.277098 36.757017 36 38.5 36 C 40.242983 36 41.303981 35.277098 42 34.5625 C 42.696019 35.277098 43.757017 36 45.5 36 C 48.612821 36 49.90625 33.40625 49.90625 33.40625 A 1.0001 1.0001 0 0 0 48.875 31.90625 A 1.0001 1.0001 0 0 0 48.09375 32.59375 C 48.09375 32.59375 47.587179 34 45.5 34 C 43.412821 34 42.90625 32.59375 42.90625 32.59375 A 1.0001 1.0001 0 0 0 41.09375 32.59375 C 41.09375 32.59375 40.587179 34 38.5 34 C 36.412821 34 35.90625 32.59375 35.90625 32.59375 A 1.0001 1.0001 0 0 0 34.84375 32 A 1.0001 1.0001 0 0 0 34.09375 32.59375 C 34.09375 32.59375 33.587179 34 31.5 34 C 31.327414 34 31.159449 33.992371 31 33.96875 L 27.28125 1.78125 L 27.28125 1.75 L 27.28125 1.71875 C 27.100792 0.81646049 26.345833 0 25.3125 0 L 20 0 z M 20 2 L 25.3125 2 L 25.3125 2.09375 L 30.59375 48 L 20 48 L 20 2 z"/>
</svg>
