<?xml version="1.0"?>
<svg xmlns="http://www.w3.org/2000/svg" viewBox="0 0 50 50">
    <path style="line-height:normal;text-indent:0;text-align:start;text-decoration-line:none;text-decoration-style:solid;text-decoration-color:#000;text-transform:none;block-progression:tb;isolation:auto;mix-blend-mode:normal" d="M 24.962891 2 A 1.0001 1.0001 0 0 0 24.240234 2.3496094 L 18.539062 9 L 8.1542969 9 A 1.0001 1.0001 0 0 0 7.984375 8.9863281 A 1.0001 1.0001 0 0 0 7.8398438 9 L 6 9 A 1.0001 1.0001 0 1 0 6 11 L 7 11 L 7 13 A 1.0001 1.0001 0 1 0 9 13 L 9 11 L 9.6972656 11 L 18 16.535156 L 18 22 L 8.1542969 22 A 1.0001 1.0001 0 0 0 7.984375 21.986328 A 1.0001 1.0001 0 0 0 7.8398438 22 L 6 22 A 1.0001 1.0001 0 1 0 6 24 L 7 24 L 7 26 A 1.0001 1.0001 0 1 0 9 26 L 9 24 L 9.6972656 24 L 18 29.535156 L 18 35.675781 L 10.191406 46.412109 A 1.0001 1.0001 0 0 0 11.335938 47.941406 L 25 43.0625 L 38.664062 47.941406 A 1.0001 1.0001 0 0 0 39.808594 46.412109 L 32 35.675781 L 32 29.535156 L 40.302734 24 L 41 24 L 41 26 A 1.0001 1.0001 0 1 0 43 26 L 43 24 L 44 24 A 1.0001 1.0001 0 1 0 44 22 L 42.154297 22 A 1.0001 1.0001 0 0 0 41.984375 21.986328 A 1.0001 1.0001 0 0 0 41.839844 22 L 32 22 L 32 16.535156 L 40.302734 11 L 41 11 L 41 13 A 1.0001 1.0001 0 1 0 43 13 L 43 11 L 44 11 A 1.0001 1.0001 0 1 0 44 9 L 42.154297 9 A 1.0001 1.0001 0 0 0 41.984375 8.9863281 A 1.0001 1.0001 0 0 0 41.839844 9 L 31.460938 9 L 25.759766 2.3496094 A 1.0001 1.0001 0 0 0 24.962891 2 z M 25 4.5371094 L 28.826172 9 L 21.173828 9 L 25 4.5371094 z M 13.302734 11 L 18 11 L 18 14.130859 L 13.302734 11 z M 21.283203 11 L 28.716797 11 L 25 15.027344 L 21.283203 11 z M 32 11 L 36.697266 11 L 32 14.130859 L 32 11 z M 20 12.556641 L 23.638672 16.5 L 20 20.443359 L 20 12.556641 z M 30 12.556641 L 30 20.443359 L 26.359375 16.5 L 30 12.556641 z M 25 17.974609 L 28.714844 22 L 21.285156 22 L 25 17.974609 z M 13.302734 24 L 18 24 L 18 27.130859 L 13.302734 24 z M 21.285156 24 L 28.714844 24 L 25 28.025391 L 21.285156 24 z M 32 24 L 36.697266 24 L 32 27.130859 L 32 24 z M 20 25.556641 L 23.638672 29.5 L 20 33.443359 L 20 25.556641 z M 30 25.556641 L 30 33.443359 L 26.361328 29.5 L 30 25.556641 z M 25 30.974609 L 29.613281 35.972656 L 25 40.585938 L 20.386719 35.972656 L 25 30.974609 z M 19.121094 37.535156 L 23.175781 41.589844 L 13.712891 44.970703 L 19.121094 37.535156 z M 30.878906 37.535156 L 36.287109 44.970703 L 26.824219 41.589844 L 30.878906 37.535156 z"/>
</svg>
