<?xml version="1.0"?>
<svg xmlns="http://www.w3.org/2000/svg" viewBox="0 0 80 80">
    <path style="line-height:normal;text-indent:0;text-align:start;text-decoration-line:none;text-decoration-style:solid;text-decoration-color:#000;text-transform:none;block-progression:tb;isolation:auto;mix-blend-mode:normal" d="M 72.685547 12.746094 L 70.421875 14.089844 C 68.121607 15.454147 65.572872 16.431818 62.876953 17.013672 C 60.342277 14.548307 56.90439 12.992186 53.095703 12.992188 C 45.339053 12.992186 39.027344 19.303896 39.027344 27.060547 C 39.027344 27.676408 39.154252 28.257582 39.230469 28.853516 C 29.159142 28.010926 20.236762 23.151749 14.205078 15.753906 L 13.292969 14.632812 L 12.566406 15.882812 C 11.35731 17.959702 10.662109 20.378965 10.662109 22.955078 C 10.662109 26.494763 12.00011 29.718425 14.164062 32.195312 C 13.431032 31.955027 12.706742 31.691447 12.042969 31.322266 L 10.556641 30.496094 L 10.556641 32.361328 C 10.556641 37.599497 13.456733 42.12746 17.714844 44.548828 C 17.249264 44.513898 16.777009 44.502108 16.326172 44.416016 L 14.671875 44.101562 L 15.185547 45.705078 C 16.713233 50.470833 20.774453 53.960949 25.730469 55.007812 C 21.789813 57.537422 17.152307 59.068359 12.117188 59.068359 C 11.10177 59.068359 10.103043 59.009799 9.1191406 58.892578 L 4.7949219 58.376953 L 8.4609375 60.728516 C 14.397988 64.534264 21.455857 66.755859 29.03125 66.755859 C 41.325391 66.755859 50.922232 61.632772 57.382812 54.302734 C 63.843393 46.972697 67.208984 37.463859 67.208984 28.576172 C 67.208984 28.158088 67.194701 27.743191 67.181641 27.328125 C 69.641201 25.472258 71.810529 23.239757 73.523438 20.677734 L 75.443359 17.804688 L 72.287109 19.207031 C 71.103557 19.732545 69.898374 20.149287 68.660156 20.484375 C 70.061456 18.982517 71.235666 17.283673 71.884766 15.253906 L 72.685547 12.746094 z M 53.095703 14.992188 C 56.57217 14.992188 59.703544 16.458939 61.904297 18.804688 L 62.283203 19.208984 L 62.826172 19.101562 C 64.882388 18.696949 66.811875 17.98571 68.673828 17.148438 C 67.697164 18.791158 66.493456 20.253297 64.822266 21.253906 L 64.027344 21.730469 L 64.779297 23.236328 L 65.480469 23.150391 C 66.938606 22.972093 68.327618 22.664352 69.679688 22.269531 C 68.438941 23.669031 67.101924 24.980599 65.585938 26.076172 L 65.150391 26.390625 L 65.173828 26.929688 C 65.197248 27.475248 65.208984 28.026511 65.208984 28.576172 C 65.208984 36.956485 62.002233 46.037506 55.882812 52.980469 C 49.763393 59.923431 40.773109 64.755859 29.03125 64.755859 C 23.291182 64.755859 17.902581 63.366367 13.085938 60.986328 C 19.054565 60.774368 24.562971 58.711209 28.962891 55.261719 L 31.175781 53.527344 L 28.365234 53.474609 C 23.660227 53.387399 19.742181 50.542194 17.826172 46.558594 C 18.085868 46.573244 18.332037 46.632812 18.595703 46.632812 C 19.879406 46.632812 21.123065 46.462109 22.304688 46.138672 L 26.375 45.023438 L 22.236328 44.193359 C 17.189097 43.180368 13.440418 38.968791 12.808594 33.785156 C 14.265801 34.356849 15.799543 34.777126 17.443359 34.830078 L 20.939453 34.943359 L 18.03125 33 C 14.793874 30.836517 12.662109 27.148936 12.662109 22.955078 C 12.662109 21.218182 13.115377 19.620293 13.771484 18.132812 C 20.364793 25.571379 29.727153 30.506769 40.314453 31.037109 L 41.634766 31.103516 L 41.337891 29.814453 C 41.134624 28.931168 41.027344 28.008375 41.027344 27.060547 C 41.027344 20.385197 46.420354 14.992186 53.095703 14.992188 z M 53 17 A 1 1 0 0 0 52 18 A 1 1 0 0 0 53 19 A 1 1 0 0 0 54 18 A 1 1 0 0 0 53 17 z M 48.474609 18.205078 A 1 1 0 0 0 47.998047 18.339844 A 1 1 0 0 0 47.632812 19.705078 A 1 1 0 0 0 48.998047 20.072266 A 1 1 0 0 0 49.365234 18.705078 A 1 1 0 0 0 48.474609 18.205078 z M 45.158203 21.501953 A 1 1 0 0 0 44.339844 22 A 1 1 0 0 0 44.705078 23.367188 A 1 1 0 0 0 46.070312 23 A 1 1 0 0 0 45.705078 21.634766 A 1 1 0 0 0 45.158203 21.501953 z M 44 26 A 1 1 0 0 0 43 27 A 1 1 0 0 0 44 28 A 1 1 0 0 0 45 27 A 1 1 0 0 0 44 26 z M 24 35 A 1 1 0 0 0 23 36 A 1 1 0 0 0 24 37 A 1 1 0 0 0 25 36 A 1 1 0 0 0 24 35 z M 28 36 A 1 1 0 0 0 27 37 A 1 1 0 0 0 28 38 A 1 1 0 0 0 29 37 A 1 1 0 0 0 28 36 z M 32 37 A 1 1 0 0 0 31 38 A 1 1 0 0 0 32 39 A 1 1 0 0 0 33 38 A 1 1 0 0 0 32 37 z M 29 44 A 1 1 0 0 0 28 45 A 1 1 0 0 0 29 46 A 1 1 0 0 0 30 45 A 1 1 0 0 0 29 44 z M 33 44 A 1 1 0 0 0 32 45 A 1 1 0 0 0 33 46 A 1 1 0 0 0 34 45 A 1 1 0 0 0 33 44 z M 34 51 A 1 1 0 0 0 33 52 A 1 1 0 0 0 34 53 A 1 1 0 0 0 35 52 A 1 1 0 0 0 34 51 z"/>
</svg>
