<?xml version="1.0"?>
<svg xmlns="http://www.w3.org/2000/svg" viewBox="0 0 80 80">
    <path style="line-height:normal;text-indent:0;text-align:start;text-decoration-line:none;text-decoration-style:solid;text-decoration-color:#000;text-transform:none;block-progression:tb;isolation:auto;mix-blend-mode:normal" d="M 39.763672 13.755859 C 29.300158 13.755859 19.514391 14.533244 14.154297 15.669922 L 14.146484 15.671875 L 14.140625 15.673828 C 10.369633 16.53102 6.9873554 19.178308 6.2773438 23.261719 L 6.2753906 23.265625 L 6.2753906 23.269531 C 5.6355358 27.109741 5 32.840751 5 40 C 5 47.153405 5.63433 52.731239 6.4375 56.75 C 7.1553561 60.682154 10.501719 63.46109 14.298828 64.324219 L 14.310547 64.328125 L 14.324219 64.330078 C 19.971839 65.459193 29.458361 66.242187 39.921875 66.242188 C 50.385325 66.242188 59.870675 65.460259 65.519531 64.330078 L 65.53125 64.328125 L 65.544922 64.324219 C 69.315914 63.467027 72.698191 60.821692 73.408203 56.738281 L 73.410156 56.730469 L 73.410156 56.724609 C 74.044229 52.76115 74.840617 47.025451 75 39.863281 L 75.001953 39.853516 L 75.001953 39.841797 C 75.001953 32.676335 74.205353 26.938189 73.40625 22.939453 C 72.690812 19.003978 69.344052 16.222963 65.544922 15.359375 L 65.503906 15.349609 L 65.464844 15.34375 C 59.873192 14.54506 50.227186 13.755859 39.763672 13.755859 z M 39.763672 15.755859 C 50.101912 15.755859 59.669884 16.540943 65.130859 17.318359 C 68.260335 18.040475 70.894662 20.300092 71.439453 23.296875 L 71.441406 23.304688 L 71.443359 23.314453 C 72.220805 27.200698 73.000987 32.81026 73.001953 39.830078 C 72.844927 46.856084 72.06475 52.472542 71.4375 56.394531 C 70.886226 59.565011 68.278741 61.647693 65.113281 62.371094 C 59.71442 63.44986 50.277815 64.242188 39.921875 64.242188 C 29.565999 64.242188 20.128568 63.448928 14.730469 62.371094 C 11.592857 61.653571 8.9501511 59.38935 8.4042969 56.386719 L 8.4023438 56.378906 L 8.4003906 56.369141 C 7.6264863 52.500653 7 47.040751 7 40 C 7 32.962168 7.626181 27.337246 8.2480469 23.603516 C 8.7999286 20.42954 11.411851 18.346196 14.582031 17.625 L 14.583984 17.625 C 19.638728 16.55472 29.40788 15.755859 39.763672 15.755859 z M 15 23 A 1 1 0 0 0 14 24 A 1 1 0 0 0 15 25 A 1 1 0 0 0 16 24 A 1 1 0 0 0 15 23 z M 31 25.271484 L 31 27 L 31 54.728516 L 56.615234 40 L 31 25.271484 z M 14 27 A 1 1 0 0 0 13 28 A 1 1 0 0 0 14 29 A 1 1 0 0 0 15 28 A 1 1 0 0 0 14 27 z M 33 28.728516 L 52.603516 40 L 33 51.271484 L 33 28.728516 z M 14 31 A 1 1 0 0 0 13 32 A 1 1 0 0 0 14 33 A 1 1 0 0 0 15 32 A 1 1 0 0 0 14 31 z M 36 33 A 1 1 0 0 0 35 34 A 1 1 0 0 0 36 35 A 1 1 0 0 0 37 34 A 1 1 0 0 0 36 33 z M 14 35 A 1 1 0 0 0 13 36 A 1 1 0 0 0 14 37 A 1 1 0 0 0 15 36 A 1 1 0 0 0 14 35 z M 36 37 A 1 1 0 0 0 35 38 A 1 1 0 0 0 36 39 A 1 1 0 0 0 37 38 A 1 1 0 0 0 36 37 z M 14 39 A 1 1 0 0 0 13 40 A 1 1 0 0 0 14 41 A 1 1 0 0 0 15 40 A 1 1 0 0 0 14 39 z M 36 41 A 1 1 0 0 0 35 42 A 1 1 0 0 0 36 43 A 1 1 0 0 0 37 42 A 1 1 0 0 0 36 41 z M 14 43 A 1 1 0 0 0 13 44 A 1 1 0 0 0 14 45 A 1 1 0 0 0 15 44 A 1 1 0 0 0 14 43 z M 36 45 A 1 1 0 0 0 35 46 A 1 1 0 0 0 36 47 A 1 1 0 0 0 37 46 A 1 1 0 0 0 36 45 z M 14 47 A 1 1 0 0 0 13 48 A 1 1 0 0 0 14 49 A 1 1 0 0 0 15 48 A 1 1 0 0 0 14 47 z M 14 51 A 1 1 0 0 0 13 52 A 1 1 0 0 0 14 53 A 1 1 0 0 0 15 52 A 1 1 0 0 0 14 51 z M 15 55 A 1 1 0 0 0 14 56 A 1 1 0 0 0 15 57 A 1 1 0 0 0 16 56 A 1 1 0 0 0 15 55 z"/>
</svg>
